<svg width="88" height="51" viewBox="0 0 88 51" fill="none" xmlns="http://www.w3.org/2000/svg">
<path d="M35.8074 47.4754H13.4006C11.9068 47.4754 10.6846 46.2533 10.6846 44.7595V11.3302C10.6846 9.83645 11.9068 8.61426 13.4006 8.61426H35.8074C37.3012 8.61426 38.5234 9.83645 38.5234 11.3302V44.7368C38.5234 46.2533 37.3012 47.4754 35.8074 47.4754Z" fill="#F7941D"/>
<path d="M36.2154 45.642H14.1254C13.1748 45.642 12.4053 44.8725 12.4053 43.9219V11.0585C12.4053 10.1079 13.1748 9.33838 14.1254 9.33838H36.2154C37.166 9.33838 37.9355 10.1079 37.9355 11.0585V43.9219C37.9355 44.8499 37.166 45.642 36.2154 45.642Z" fill="#FFCE06"/>
<path d="M31.0096 21.5831H18.1766C17.3392 21.5831 16.6602 20.9041 16.6602 20.0667V15.5174C16.6602 14.68 17.3392 14.001 18.1766 14.001H31.0096C31.847 14.001 32.526 14.68 32.526 15.5174V20.0667C32.526 20.9041 31.847 21.5831 31.0096 21.5831Z" fill="#603913"/>
<path d="M31.7795 20.9719H18.5391C17.8149 20.9719 17.249 20.3835 17.249 19.6818V14.7252C17.249 14.0009 17.8375 13.4351 18.5391 13.4351H31.7795C32.5038 13.4351 33.0696 14.0235 33.0696 14.7252V19.6818C33.0922 20.4061 32.5038 20.9719 31.7795 20.9719Z" fill="#3C2415"/>
<path d="M25.7359 26.0645L21.6846 34.5519L24.6042 34.5066L22.771 41.3419L27.5013 33.2392L24.5816 33.2844L25.7359 26.0645Z" fill="#3C2415"/>
<path d="M35.8074 7.70898H13.4006C11.4089 7.70898 9.7793 9.33857 9.7793 11.3303V44.7369C9.7793 46.7286 11.4089 48.3582 13.4006 48.3582H19.0589V49.5351C19.0589 49.9199 19.3531 50.2141 19.7379 50.2141C20.1227 50.2141 20.4169 49.9199 20.4169 49.5351V48.3582H28.7912V49.5351C28.7912 49.9199 29.0854 50.2141 29.4701 50.2141C29.8549 50.2141 30.1491 49.9199 30.1491 49.5351V48.3582H35.8074C37.7992 48.3582 39.4287 46.7286 39.4287 44.7369V11.3303C39.4287 9.33857 37.7992 7.70898 35.8074 7.70898ZM37.6181 44.7595C37.6181 45.7554 36.8033 46.5702 35.8074 46.5702H13.4006C12.4047 46.5702 11.59 45.7554 11.59 44.7595V11.3303C11.59 10.3344 12.4047 9.51964 13.4006 9.51964H35.8074C36.8033 9.51964 37.6181 10.3344 37.6181 11.3303V44.7595Z" fill="#3C2415"/>
<path d="M44.6808 25.4759L43.6396 24.4347V12.9597H45.7219V23.3936H46.763V15.042H48.8453V23.3936H49.8864V12.9597H51.9687V24.4347L50.9275 25.4759H48.8453L47.8042 24.4347L46.763 25.4759H44.6808Z" fill="#3C2415"/>
<path d="M52.8955 25.4759V12.9597H54.9778V25.4759H52.8955Z" fill="#3C2415"/>
<path d="M55.9062 25.4759V12.9597H60.0708L61.1119 14.0008V18.1653L60.0708 19.2065L61.1119 20.2476V25.4759H59.0296V20.2476H57.9885V25.4759H55.9062ZM59.0296 18.1653V15.042H57.9885V18.1653H59.0296Z" fill="#3C2415"/>
<path d="M62.04 25.4759V12.9597H67.2683V15.042H64.1223V18.1653H66.2045V20.2476H64.1223V23.371H67.2457V25.4532H62.04V25.4759Z" fill="#3C2415"/>
<path d="M70.2549 25.4759V14.0008L71.296 12.9597H74.4194L75.4605 14.0008V25.4759H73.3783V21.3114H72.3371V25.4759H70.2549ZM73.3783 19.2065V15.042H72.3371V19.2065H73.3783Z" fill="#3C2415"/>
<path d="M76.3887 25.4759V14.0008L77.4298 12.9597H80.5532L81.5943 14.0008V25.4759H79.512V15.042H78.4709V25.4759H76.3887Z" fill="#3C2415"/>
<path d="M82.5225 25.4759V12.9597H86.687L87.7281 14.0008V24.4347L86.687 25.4759H82.5225ZM85.6458 23.3936V15.042H84.6047V23.3936H85.6458Z" fill="#3C2415"/>
<path d="M44.9288 43.4242L43.6387 42.1341V38.2639H46.2189V40.844H47.5089V36.9738H44.9288L43.6387 35.6837V29.2332L44.9288 27.9431H48.799L50.0891 29.2332V33.1035H47.5089V30.5233H46.2189V34.3936H48.799L50.0891 35.6837V42.1341L48.799 43.4242H44.9288Z" fill="#3C2415"/>
<path d="M52.5108 43.4242L51.2207 42.1341V27.9431H53.8009V40.844H55.091V30.5233H57.6712V40.844H58.9612V27.9431H61.5414V42.1341L60.2513 43.4242H57.6712L56.3811 42.1341L55.091 43.4242H52.5108Z" fill="#3C2415"/>
<path d="M62.6729 43.4242V27.9431H65.253V43.4242H62.6729Z" fill="#3C2415"/>
<path d="M68.3322 43.4242V30.5233H66.3857V27.9431H72.8362V30.5233H70.9124V43.4242H68.3322Z" fill="#3C2415"/>
<path d="M75.2579 43.4242L73.9678 42.1341V29.2332L75.2579 27.9431H79.1281L80.4182 29.2332V33.1035H77.838V30.5233H76.548V40.844H77.838V38.2639H80.4182V42.1341L79.1281 43.4242H75.2579Z" fill="#3C2415"/>
<path d="M81.5488 43.4242V27.9431H84.129V34.3936H85.4191V27.9431H87.9993V43.4242H85.4191V36.9738H84.129V43.4242H81.5488Z" fill="#3C2415"/>
<path d="M9.75675 22.76H2.9668V31.8133H9.75675V22.76Z" fill="#3C2415"/>
<path d="M4.59639 2.69214C5.50171 2.69214 6.22597 3.3446 6.22597 4.16018V24.7739C6.22597 25.5895 5.50171 26.242 4.59639 26.242C3.69106 26.242 2.9668 25.5895 2.9668 24.7739V4.16018C2.9668 3.3446 3.69106 2.69214 4.59639 2.69214Z" fill="#3C2415"/>
<path d="M5.43125 27.8552L7.15137 27.8552L7.15137 1.49164L5.43125 1.49164L5.43125 27.8552Z" fill="#603913"/>
<path d="M5.22035 10.4407C8.10346 10.4407 10.4407 8.10347 10.4407 5.22035C10.4407 2.33723 8.10346 0 5.22035 0C2.33723 0 0 2.33723 0 5.22035C0 8.10347 2.33723 10.4407 5.22035 10.4407Z" fill="#3C2415"/>
<path d="M7.30851 7.1595C8.87363 7.1595 10.1424 5.89072 10.1424 4.3256C10.1424 2.76048 8.87363 1.4917 7.30851 1.4917C5.74339 1.4917 4.47461 2.76048 4.47461 4.3256C4.47461 5.89072 5.74339 7.1595 7.30851 7.1595Z" fill="#754C29"/>
</svg>
